# xmcd
#
# Track frame offsets:
#	150
#	22105
#	52040
#	88576
#	110361
#	135939
#	147026
#	165904
#	203092
#	216813
#	242183
#	269072
#
# Disc length: 4398
#
# Revision: 2
# Processed by: cddbd v1.5.1PL0 Copyright (c) Steve Scherf et al.
# Submitted via: audiograbber 1.82.02
# Normalized: r1:DSETVAR1
#
DISCID=a8112c0c
DTITLE=Various Artist - Featuring String Cheese Incident
DYEAR=2002
DGENRE=
TTITLE0=Keller Williams - Freeker By The Speaker
TTITLE1=DJ Harry - Wake Up
TTITLE2=Robert Randolph and The Family Band - The March
TTITLE3=The String Cheese Incident - Close Your Eyes
TTITLE4=Billy and Liza - Sweet Tender Lovin'
TTITLE5=Yonder Mountain String Band - Idaho
TTITLE6=Keller Williams - Breathe
TTITLE7=DJ Harry - Turn The Bend
TTITLE8=Billy and Liza - Ten Miles To Tulsa
TTITLE9=Comotion - Oh Lei
TTITLE10=Keller Williams - Kidney In A Coller
TTITLE11=The String Cheese Incident - Texas
EXTD=
EXTT0=
EXTT1=
EXTT2=
EXTT3=
EXTT4=
EXTT5=
EXTT6=
EXTT7=
EXTT8=
EXTT9=
EXTT10=
EXTT11=
PLAYORDER=
